{
  "accessors": [
    {
      "bufferView": 2,
      "componentType": 5126,
      "count": 5527,
      "max": [
        45.64875030517578,
        18.742998123168945,
        16.312549591064453
      ],
      "min": [
        -45.48280334472656,
        0.0872730016708374,
        -16.313251495361328
      ],
      "type": "VEC3"
    },
    {
      "bufferView": 2,
      "byteOffset": 66324,
      "componentType": 5126,
      "count": 5527,
      "max": [
        1.0,
        1.0,
        1.0
      ],
      "min": [
        -1.0,
        -1.0,
        -1.0
      ],
      "type": "VEC3"
    },
    {
      "bufferView": 1,
      "componentType": 5126,
      "count": 5527,
      "max": [
        0.9952049851417542,
        0.9927399754524231
      ],
      "min": [
        0.005913000088185072,
        0.015881000086665154
      ],
      "type": "VEC2"
    },
    {
      "bufferView": 0,
      "componentType": 5125,
      "count": 30156,
      "type": "SCALAR"
    },
    {
      "bufferView": 2,
      "byteOffset": 132648,
      "componentType": 5126,
      "count": 142,
      "max": [
        4548.2578125,
        2845.07177734375,
        5261.85546875
      ],
      "min": [
        -4548.2578125,
        -196.89938354492188,
        -5261.85595703125
      ],
      "type": "VEC3"
    },
    {
      "bufferView": 2,
      "byteOffset": 134352,
      "componentType": 5126,
      "count": 142,
      "max": [
        1.0,
        1.0,
        1.0
      ],
      "min": [
        -1.0,
        -1.6292061388867296e-07,
        -1.0
      ],
      "type": "VEC3"
    },
    {
      "bufferView": 1,
      "byteOffset": 44216,
      "componentType": 5126,
      "count": 142,
      "max": [
        1.0,
        1.0
      ],
      "min": [
        0.0,
        0.0
      ],
      "type": "VEC2"
    },
    {
      "bufferView": 1,
      "byteOffset": 45352,
      "componentType": 5126,
      "count": 142,
      "max": [
        1.0,
        1.0
      ],
      "min": [
        0.0,
        0.0
      ],
      "type": "VEC2"
    },
    {
      "bufferView": 0,
      "byteOffset": 120624,
      "componentType": 5125,
      "count": 270,
      "type": "SCALAR"
    },
    {
      "bufferView": 2,
      "byteOffset": 136056,
      "componentType": 5126,
      "count": 2328,
      "max": [
        4281.03759765625,
        2506.767578125,
        5029.15625
      ],
      "min": [
        -4174.7177734375,
        -123.88858795166016,
        -2854.2783203125
      ],
      "type": "VEC3"
    },
    {
      "bufferView": 2,
      "byteOffset": 163992,
      "componentType": 5126,
      "count": 2328,
      "max": [
        1.0,
        1.0,
        1.0
      ],
      "min": [
        -1.0,
        -1.0,
        -1.0
      ],
      "type": "VEC3"
    },
    {
      "bufferView": 1,
      "byteOffset": 46488,
      "componentType": 5126,
      "count": 2328,
      "max": [
        1.0,
        1.0
      ],
      "min": [
        0.0,
        0.0
      ],
      "type": "VEC2"
    },
    {
      "bufferView": 1,
      "byteOffset": 65112,
      "componentType": 5126,
      "count": 2328,
      "max": [
        1.0,
        0.25650501251220703
      ],
      "min": [
        0.0,
        0.0
      ],
      "type": "VEC2"
    },
    {
      "bufferView": 0,
      "byteOffset": 121704,
      "componentType": 5125,
      "count": 6732,
      "type": "SCALAR"
    },
    {
      "bufferView": 2,
      "byteOffset": 191928,
      "componentType": 5126,
      "count": 2796,
      "max": [
        3768.511474609375,
        2518.98583984375,
        5261.85546875
      ],
      "min": [
        -3768.511474609375,
        -10.07861328125,
        -5261.85546875
      ],
      "type": "VEC3"
    },
    {
      "bufferView": 2,
      "byteOffset": 225480,
      "componentType": 5126,
      "count": 2796,
      "max": [
        0.9983683824539185,
        1.0,
        0.9986017346382141
      ],
      "min": [
        -0.9983683824539185,
        -1.0,
        -0.9986015558242798
      ],
      "type": "VEC3"
    },
    {
      "bufferView": 1,
      "byteOffset": 83736,
      "componentType": 5126,
      "count": 2796,
      "max": [
        1.0,
        1.0
      ],
      "min": [
        0.0,
        0.0
      ],
      "type": "VEC2"
    },
    {
      "bufferView": 1,
      "byteOffset": 106104,
      "componentType": 5126,
      "count": 2796,
      "max": [
        0.0,
        0.0
      ],
      "min": [
        0.0,
        0.0
      ],
      "type": "VEC2"
    },
    {
      "bufferView": 0,
      "byteOffset": 148632,
      "componentType": 5125,
      "count": 8676,
      "type": "SCALAR"
    },
    {
      "bufferView": 2,
      "byteOffset": 259032,
      "componentType": 5126,
      "count": 134,
      "max": [
        4568.1435546875,
        2845.07177734375,
        -3641.76171875
      ],
      "min": [
        -4568.1435546875,
        -3.6902618408203125,
        -5194.37841796875
      ],
      "type": "VEC3"
    },
    {
      "bufferView": 2,
      "byteOffset": 260640,
      "componentType": 5126,
      "count": 134,
      "max": [
        1.0,
        1.0,
        1.0
      ],
      "min": [
        -1.0,
        -1.0,
        -1.0
      ],
      "type": "VEC3"
    },
    {
      "bufferView": 1,
      "byteOffset": 128472,
      "componentType": 5126,
      "count": 134,
      "max": [
        0.875,
        0.9167940616607666
      ],
      "min": [
        0.125,
        0.0
      ],
      "type": "VEC2"
    },
    {
      "bufferView": 1,
      "byteOffset": 129544,
      "componentType": 5126,
      "count": 134,
      "max": [
        0.0,
        0.0
      ],
      "min": [
        0.0,
        0.0
      ],
      "type": "VEC2"
    },
    {
      "bufferView": 0,
      "byteOffset": 183336,
      "componentType": 5125,
      "count": 354,
      "type": "SCALAR"
    },
    {
      "bufferView": 2,
      "byteOffset": 262248,
      "componentType": 5126,
      "count": 16,
      "max": [
        4568.1435546875,
        2845.07177734375,
        -3702.2099609375
      ],
      "min": [
        -4568.1435546875,
        -3.6899795532226563,
        -3702.21044921875
      ],
      "type": "VEC3"
    },
    {
      "bufferView": 2,
      "byteOffset": 262440,
      "componentType": 5126,
      "count": 16,
      "max": [
        0.0,
        1.6292072757551068e-07,
        1.0
      ],
      "min": [
        0.0,
        1.6292072757551068e-07,
        1.0
      ],
      "type": "VEC3"
    },
    {
      "bufferView": 1,
      "byteOffset": 130616,
      "componentType": 5126,
      "count": 16,
      "max": [
        0.625,
        1.0
      ],
      "min": [
        0.375,
        0.75
      ],
      "type": "VEC2"
    },
    {
      "bufferView": 1,
      "byteOffset": 130744,
      "componentType": 5126,
      "count": 16,
      "max": [
        0.0,
        0.0
      ],
      "min": [
        0.0,
        0.0
      ],
      "type": "VEC2"
    },
    {
      "bufferView": 0,
      "byteOffset": 184752,
      "componentType": 5125,
      "count": 42,
      "type": "SCALAR"
    },
    {
      "bufferView": 2,
      "byteOffset": 262632,
      "componentType": 5126,
      "count": 2760,
      "max": [
        2049.27978515625,
        2401.400146484375,
        -3724.94189453125
      ],
      "min": [
        -2049.27978515625,
        26.78793716430664,
        -5111.02734375
      ],
      "type": "VEC3"
    },
    {
      "bufferView": 2,
      "byteOffset": 295752,
      "componentType": 5126,
      "count": 2760,
      "max": [
        1.0,
        1.0,
        1.0
      ],
      "min": [
        -1.0,
        -1.0,
        -1.0
      ],
      "type": "VEC3"
    },
    {
      "bufferView": 1,
      "byteOffset": 130872,
      "componentType": 5126,
      "count": 2760,
      "max": [
        0.8708626627922058,
        1.0
      ],
      "min": [
        0.125,
        0.0
      ],
      "type": "VEC2"
    },
    {
      "bufferView": 1,
      "byteOffset": 152952,
      "componentType": 5126,
      "count": 2760,
      "max": [
        0.0,
        0.0
      ],
      "min": [
        0.0,
        0.0
      ],
      "type": "VEC2"
    },
    {
      "bufferView": 0,
      "byteOffset": 184920,
      "componentType": 5125,
      "count": 7920,
      "type": "SCALAR"
    },
    {
      "bufferView": 2,
      "byteOffset": 328872,
      "componentType": 5126,
      "count": 678,
      "max": [
        737.5225830078125,
        2415.88671875,
        1.0
      ],
      "min": [
        -737.522216796875,
        -0.5,
        -5086.34619140625
      ],
      "type": "VEC3"
    },
    {
      "bufferView": 2,
      "byteOffset": 337008,
      "componentType": 5126,
      "count": 678,
      "max": [
        1.0,
        1.0,
        1.0
      ],
      "min": [
        -1.0,
        -1.0,
        -1.0
      ],
      "type": "VEC3"
    },
    {
      "bufferView": 1,
      "byteOffset": 175032,
      "componentType": 5126,
      "count": 678,
      "max": [
        0.8708626627922058,
        1.0
      ],
      "min": [
        0.0,
        0.0
      ],
      "type": "VEC2"
    },
    {
      "bufferView": 1,
      "byteOffset": 180456,
      "componentType": 5126,
      "count": 678,
      "max": [
        0.8708626627922058,
        1.0
      ],
      "min": [
        0.0,
        0.0
      ],
      "type": "VEC2"
    },
    {
      "bufferView": 1,
      "byteOffset": 185880,
      "componentType": 5126,
      "count": 678,
      "max": [
        1.0000001192092896,
        1.0
      ],
      "min": [
        0.0,
        0.0
      ],
      "type": "VEC2"
    },
    {
      "bufferView": 0,
      "byteOffset": 216600,
      "componentType": 5125,
      "count": 2133,
      "type": "SCALAR"
    },
    {
      "bufferView": 2,
      "byteOffset": 345144,
      "componentType": 5126,
      "count": 2946,
      "max": [
        1015.4624633789063,
        2151.069091796875,
        -4999.408203125
      ],
      "min": [
        -1015.4622192382813,
        120.14433288574219,
        -5685.04345703125
      ],
      "type": "VEC3"
    },
    {
      "bufferView": 2,
      "byteOffset": 380496,
      "componentType": 5126,
      "count": 2946,
      "max": [
        1.0,
        1.0,
        1.0
      ],
      "min": [
        -1.0,
        -1.0,
        -1.0
      ],
      "type": "VEC3"
    },
    {
      "bufferView": 1,
      "byteOffset": 191304,
      "componentType": 5126,
      "count": 2946,
      "max": [
        0.0,
        0.0
      ],
      "min": [
        0.0,
        0.0
      ],
      "type": "VEC2"
    },
    {
      "bufferView": 1,
      "byteOffset": 214872,
      "componentType": 5126,
      "count": 2946,
      "max": [
        0.0,
        0.0
      ],
      "min": [
        0.0,
        0.0
      ],
      "type": "VEC2"
    },
    {
      "bufferView": 0,
      "byteOffset": 225132,
      "componentType": 5125,
      "count": 11904,
      "type": "SCALAR"
    },
    {
      "bufferView": 2,
      "byteOffset": 415848,
      "componentType": 5126,
      "count": 3720,
      "max": [
        1211.917236328125,
        11.332740783691406,
        5261.642578125
      ],
      "min": [
        -1211.917236328125,
        -1.070656657218933,
        -5263.80322265625
      ],
      "type": "VEC3"
    },
    {
      "bufferView": 2,
      "byteOffset": 460488,
      "componentType": 5126,
      "count": 3720,
      "max": [
        1.0,
        1.0,
        1.6292072757551068e-07
      ],
      "min": [
        -1.0,
        -1.0,
        -1.0
      ],
      "type": "VEC3"
    },
    {
      "bufferView": 1,
      "byteOffset": 238440,
      "componentType": 5126,
      "count": 3720,
      "max": [
        1.0,
        1.0
      ],
      "min": [
        0.0,
        0.0
      ],
      "type": "VEC2"
    },
    {
      "bufferView": 1,
      "byteOffset": 268200,
      "componentType": 5126,
      "count": 3720,
      "max": [
        0.0,
        0.0
      ],
      "min": [
        0.0,
        0.0
      ],
      "type": "VEC2"
    },
    {
      "bufferView": 0,
      "byteOffset": 272748,
      "componentType": 5125,
      "count": 5580,
      "type": "SCALAR"
    },
    {
      "bufferView": 2,
      "byteOffset": 505128,
      "componentType": 5126,
      "count": 3720,
      "max": [
        1211.917236328125,
        11.332731246948242,
        5204.74853515625
      ],
      "min": [
        -1211.917236328125,
        -1.070665955543518,
        -5320.6982421875
      ],
      "type": "VEC3"
    },
    {
      "bufferView": 2,
      "byteOffset": 549768,
      "componentType": 5126,
      "count": 3720,
      "max": [
        1.0,
        1.0,
        1.0
      ],
      "min": [
        -1.0,
        -1.0,
        -1.6292072757551068e-07
      ],
      "type": "VEC3"
    },
    {
      "bufferView": 1,
      "byteOffset": 297960,
      "componentType": 5126,
      "count": 3720,
      "max": [
        1.0,
        1.0
      ],
      "min": [
        0.0,
        1.0
      ],
      "type": "VEC2"
    },
    {
      "bufferView": 1,
      "byteOffset": 327720,
      "componentType": 5126,
      "count": 3720,
      "max": [
        0.0,
        0.0
      ],
      "min": [
        0.0,
        0.0
      ],
      "type": "VEC2"
    },
    {
      "bufferView": 0,
      "byteOffset": 295068,
      "componentType": 5125,
      "count": 5580,
      "type": "SCALAR"
    },
    {
      "bufferView": 2,
      "byteOffset": 594408,
      "componentType": 5126,
      "count": 188,
      "max": [
        418.9781799316406,
        144.83265686035156,
        4223.51708984375
      ],
      "min": [
        -418.9781799316406,
        18.713876724243164,
        2730.675537109375
      ],
      "type": "VEC3"
    },
    {
      "bufferView": 2,
      "byteOffset": 596664,
      "componentType": 5126,
      "count": 188,
      "max": [
        0.9995743632316589,
        0.9936994314193726,
        0.9368157386779785
      ],
      "min": [
        -0.9995743632316589,
        -0.019013723358511925,
        -0.8881750106811523
      ],
      "type": "VEC3"
    },
    {
      "bufferView": 1,
      "byteOffset": 357480,
      "componentType": 5126,
      "count": 188,
      "max": [
        1.0,
        1.0
      ],
      "min": [
        0.0,
        0.0
      ],
      "type": "VEC2"
    },
    {
      "bufferView": 1,
      "byteOffset": 358984,
      "componentType": 5126,
      "count": 188,
      "max": [
        0.0,
        0.0
      ],
      "min": [
        0.0,
        0.0
      ],
      "type": "VEC2"
    },
    {
      "bufferView": 0,
      "byteOffset": 317388,
      "componentType": 5125,
      "count": 480,
      "type": "SCALAR"
    },
    {
      "bufferView": 2,
      "byteOffset": 598920,
      "componentType": 5126,
      "count": 1280,
      "max": [
        3710.298095703125,
        1661.1986083984375,
        4263.734375
      ],
      "min": [
        -3710.298095703125,
        -4.900176048278809,
        -3168.2724609375
      ],
      "type": "VEC3"
    },
    {
      "bufferView": 2,
      "byteOffset": 614280,
      "componentType": 5126,
      "count": 1280,
      "max": [
        1.0,
        0.9999890923500061,
        1.0
      ],
      "min": [
        -1.0,
        -1.0,
        -1.0
      ],
      "type": "VEC3"
    },
    {
      "bufferView": 1,
      "byteOffset": 360488,
      "componentType": 5126,
      "count": 1280,
      "max": [
        0.875,
        1.0
      ],
      "min": [
        0.0,
        0.0
      ],
      "type": "VEC2"
    },
    {
      "bufferView": 1,
      "byteOffset": 370728,
      "componentType": 5126,
      "count": 1280,
      "max": [
        0.0,
        0.0
      ],
      "min": [
        0.0,
        0.0
      ],
      "type": "VEC2"
    },
    {
      "bufferView": 0,
      "byteOffset": 319308,
      "componentType": 5125,
      "count": 4116,
      "type": "SCALAR"
    },
    {
      "bufferView": 2,
      "byteOffset": 629640,
      "componentType": 5126,
      "count": 42,
      "max": [
        2595.37744140625,
        2845.076171875,
        -5466.154296875
      ],
      "min": [
        -2577.637451171875,
        -100.00467681884766,
        -5466.154296875
      ],
      "type": "VEC3"
    },
    {
      "bufferView": 2,
      "byteOffset": 630144,
      "componentType": 5126,
      "count": 42,
      "max": [
        6.513420203191345e-07,
        0.0,
        1.0
      ],
      "min": [
        -5.366196091927122e-07,
        0.0,
        1.0
      ],
      "type": "VEC3"
    },
    {
      "bufferView": 1,
      "byteOffset": 380968,
      "componentType": 5126,
      "count": 42,
      "max": [
        0.0,
        0.0
      ],
      "min": [
        0.0,
        0.0
      ],
      "type": "VEC2"
    },
    {
      "bufferView": 1,
      "byteOffset": 381304,
      "componentType": 5126,
      "count": 42,
      "max": [
        1.0000001192092896,
        0.75
      ],
      "min": [
        0.0,
        0.5
      ],
      "type": "VEC2"
    },
    {
      "bufferView": 0,
      "byteOffset": 335772,
      "componentType": 5125,
      "count": 120,
      "type": "SCALAR"
    },
    {
      "bufferView": 2,
      "byteOffset": 630648,
      "componentType": 5126,
      "count": 55088,
      "max": [
        694.0675048828125,
        738.9208984375,
        93.4248046875
      ],
      "min": [
        -739.622802734375,
        -689.6653442382813,
        -74.55126953125
      ],
      "type": "VEC3"
    },
    {
      "bufferView": 2,
      "byteOffset": 1291704,
      "componentType": 5126,
      "count": 55088,
      "max": [
        1.0,
        1.0,
        1.0
      ],
      "min": [
        -1.0,
        -1.0,
        -1.0
      ],
      "type": "VEC3"
    },
    {
      "bufferView": 1,
      "byteOffset": 381640,
      "componentType": 5126,
      "count": 55088,
      "max": [
        186.17164611816406,
        133.2838897705078
      ],
      "min": [
        -23.90627670288086,
        -39.35319137573242
      ],
      "type": "VEC2"
    },
    {
      "bufferView": 0,
      "byteOffset": 336252,
      "componentType": 5125,
      "count": 261009,
      "type": "SCALAR"
    },
    {
      "bufferView": 3,
      "componentType": 5126,
      "count": 601,
      "max": [
        12.5
      ],
      "min": [
        0.0
      ],
      "type": "SCALAR"
    },
    {
      "bufferView": 4,
      "componentType": 5126,
      "count": 601,
      "max": [
        0.0,
        0.0,
        1.0,
        1.0
      ],
      "min": [
        0.0,
        0.0,
        -0.8443288207054138,
        -0.42578238248825073
      ],
      "type": "VEC4"
    }
  ],
  "animations": [
    {
      "channels": [
        {
          "sampler": 0,
          "target": {
            "node": 21,
            "path": "rotation"
          }
        }
      ],
      "name": "Take 001",
      "samplers": [
        {
          "input": 74,
          "interpolation": "LINEAR",
          "output": 75
        }
      ]
    }
  ],
  "asset": {
    "extras": {
      "author": "keith.hibbert99 (https://sketchfab.com/keith.hibbert99)",
      "license": "CC-BY-4.0 (http://creativecommons.org/licenses/by/4.0/)",
      "source": "https://sketchfab.com/3d-models/rmit-wind-tunnel-c1513f4abaa545809882bf3e64f73d24",
      "title": "RMIT Wind Tunnel"
    },
    "generator": "Sketchfab-14.80.0",
    "version": "2.0"
  },
  "bufferViews": [
    {
      "buffer": 0,
      "byteLength": 1380288,
      "name": "floatBufferViews",
      "target": 34963
    },
    {
      "buffer": 0,
      "byteLength": 822344,
      "byteOffset": 1380288,
      "byteStride": 8,
      "name": "floatBufferViews",
      "target": 34962
    },
    {
      "buffer": 0,
      "byteLength": 1952760,
      "byteOffset": 2202632,
      "byteStride": 12,
      "name": "floatBufferViews",
      "target": 34962
    },
    {
      "buffer": 0,
      "byteLength": 2404,
      "byteOffset": 4155392,
      "name": "floatBufferViews"
    },
    {
      "buffer": 0,
      "byteLength": 9616,
      "byteOffset": 4157796,
      "byteStride": 16,
      "name": "floatBufferViews"
    }
  ],
  "buffers": [
    {
      "byteLength": 4167412,
      "uri": "scene.bin"
    }
  ],
  "images": [
    {
      "uri": "textures/PARTS_both2phong1_baseColor.png"
    },
    {
      "uri": "textures/lambert1_baseColor.png"
    }
  ],
  "materials": [
    {
      "doubleSided": true,
      "emissiveFactor": [
        0.0454545,
        0.0454545,
        0.0454545
      ],
      "name": "PARTS_both2phong1",
      "pbrMetallicRoughness": {
        "baseColorTexture": {
          "index": 0
        },
        "metallicFactor": 0.0,
        "roughnessFactor": 0.7037963632606634
      }
    },
    {
      "doubleSided": true,
      "name": "Material.009",
      "pbrMetallicRoughness": {
        "baseColorFactor": [
          0.264249,
          0.264249,
          0.264249,
          1.0
        ],
        "metallicFactor": 0.0,
        "roughnessFactor": 0.995997572484354
      }
    },
    {
      "doubleSided": true,
      "name": "Spot",
      "pbrMetallicRoughness": {
        "baseColorFactor": [
          0.8,
          0.8,
          0.8,
          1.0
        ],
        "metallicFactor": 0.0,
        "roughnessFactor": 0.9510102051443364
      }
    },
    {
      "doubleSided": true,
      "name": "Blanck",
      "pbrMetallicRoughness": {
        "baseColorFactor": [
          0.0181103,
          0.0181103,
          0.0181103,
          1.0
        ],
        "metallicFactor": 0.0,
        "roughnessFactor": 0.9987625811369335
      }
    },
    {
      "doubleSided": true,
      "name": "Material.006",
      "pbrMetallicRoughness": {
        "baseColorFactor": [
          0.0293686,
          0.0293686,
          0.0293686,
          1.0
        ],
        "metallicFactor": 0.0,
        "roughnessFactor": 0.9895288290715651
      }
    },
    {
      "doubleSided": true,
      "name": "phong2",
      "pbrMetallicRoughness": {
        "baseColorFactor": [
          0.0852,
          0.0852,
          0.2071,
          1.0
        ],
        "metallicFactor": 0.0,
        "roughnessFactor": 0.8942628736559436
      }
    },
    {
      "doubleSided": true,
      "name": "Material.007",
      "pbrMetallicRoughness": {
        "baseColorFactor": [
          0.270287,
          0.270287,
          0.270287,
          1.0
        ],
        "metallicFactor": 0.0,
        "roughnessFactor": 0.9822650344249456
      }
    },
    {
      "alphaMode": "BLEND",
      "doubleSided": true,
      "name": "lambert1",
      "pbrMetallicRoughness": {
        "baseColorTexture": {
          "index": 1
        },
        "metallicFactor": 0.0,
        "roughnessFactor": 0.6
      }
    },
    {
      "doubleSided": true,
      "name": "Material.011",
      "pbrMetallicRoughness": {
        "baseColorFactor": [
          0.0817625,
          0.0817625,
          0.0817625,
          1.0
        ],
        "metallicFactor": 0.0,
        "roughnessFactor": 0.9954293428899118
      }
    },
    {
      "doubleSided": true,
      "name": "Material.002",
      "pbrMetallicRoughness": {
        "baseColorFactor": [
          0.00853981,
          0.00853981,
          0.00853981,
          1.0
        ],
        "metallicFactor": 0.0,
        "roughnessFactor": 0.9995226106671437
      }
    },
    {
      "doubleSided": true,
      "name": "Material.003",
      "pbrMetallicRoughness": {
        "baseColorFactor": [
          0.8,
          0.39626,
          0.0,
          1.0
        ],
        "metallicFactor": 0.0,
        "roughnessFactor": 0.9746493933411712
      }
    },
    {
      "doubleSided": true,
      "name": "Material.008",
      "pbrMetallicRoughness": {
        "baseColorFactor": [
          0.8,
          0.159026,
          0.0,
          1.0
        ],
        "metallicFactor": 0.0,
        "roughnessFactor": 0.9661658359804868
      }
    },
    {
      "doubleSided": true,
      "name": "material",
      "pbrMetallicRoughness": {
        "baseColorFactor": [
          0.137586,
          0.137586,
          0.137586,
          1.0
        ],
        "metallicFactor": 0.0,
        "roughnessFactor": 0.9923087087811928
      }
    },
    {
      "doubleSided": true,
      "name": "Material.001",
      "pbrMetallicRoughness": {
        "baseColorFactor": [
          0.10048,
          0.10048,
          0.10048,
          1.0
        ],
        "metallicFactor": 0.0,
        "roughnessFactor": 0.9934069851572435
      }
    },
    {
      "doubleSided": true,
      "name": "propeller",
      "pbrMetallicRoughness": {
        "baseColorFactor": [
          0.340019,
          0.399247,
          0.409091,
          1.0
        ],
        "metallicFactor": 0.0,
        "roughnessFactor": 0.840608010166941
      }
    }
  ],
  "meshes": [
    {
      "name": "YELLOW_CAR_PARTS_both2:phong1_0",
      "primitives": [
        {
          "attributes": {
            "NORMAL": 1,
            "POSITION": 0,
            "TEXCOORD_0": 2
          },
          "indices": 3,
          "material": 0,
          "mode": 4
        }
      ]
    },
    {
      "name": "WIND_TUNNEL_Material.009_0",
      "primitives": [
        {
          "attributes": {
            "NORMAL": 5,
            "POSITION": 4,
            "TEXCOORD_0": 6,
            "TEXCOORD_1": 7
          },
          "indices": 8,
          "material": 1,
          "mode": 4
        }
      ]
    },
    {
      "name": "WIND_TUNNEL_Spot_0",
      "primitives": [
        {
          "attributes": {
            "NORMAL": 10,
            "POSITION": 9,
            "TEXCOORD_0": 11,
            "TEXCOORD_1": 12
          },
          "indices": 13,
          "material": 2,
          "mode": 4
        }
      ]
    },
    {
      "name": "WIND_TUNNEL_Blanck_0",
      "primitives": [
        {
          "attributes": {
            "NORMAL": 15,
            "POSITION": 14,
            "TEXCOORD_0": 16,
            "TEXCOORD_1": 17
          },
          "indices": 18,
          "material": 3,
          "mode": 4
        }
      ]
    },
    {
      "name": "WIND_TUNNEL_Material.006_0",
      "primitives": [
        {
          "attributes": {
            "NORMAL": 20,
            "POSITION": 19,
            "TEXCOORD_0": 21,
            "TEXCOORD_1": 22
          },
          "indices": 23,
          "material": 4,
          "mode": 4
        }
      ]
    },
    {
      "name": "WIND_TUNNEL_phong2_0",
      "primitives": [
        {
          "attributes": {
            "NORMAL": 25,
            "POSITION": 24,
            "TEXCOORD_0": 26,
            "TEXCOORD_1": 27
          },
          "indices": 28,
          "material": 5,
          "mode": 4
        }
      ]
    },
    {
      "name": "WIND_TUNNEL_Material.007_0",
      "primitives": [
        {
          "attributes": {
            "NORMAL": 30,
            "POSITION": 29,
            "TEXCOORD_0": 31,
            "TEXCOORD_1": 32
          },
          "indices": 33,
          "material": 6,
          "mode": 4
        }
      ]
    },
    {
      "name": "WIND_TUNNEL_lambert1_0",
      "primitives": [
        {
          "attributes": {
            "NORMAL": 35,
            "POSITION": 34,
            "TEXCOORD_0": 36,
            "TEXCOORD_1": 37,
            "TEXCOORD_2": 38
          },
          "indices": 39,
          "material": 7,
          "mode": 4
        }
      ]
    },
    {
      "name": "WIND_TUNNEL_Material.011_0",
      "primitives": [
        {
          "attributes": {
            "NORMAL": 41,
            "POSITION": 40,
            "TEXCOORD_0": 42,
            "TEXCOORD_1": 43
          },
          "indices": 44,
          "material": 8,
          "mode": 4
        }
      ]
    },
    {
      "name": "WIND_TUNNEL_Material.002_0",
      "primitives": [
        {
          "attributes": {
            "NORMAL": 46,
            "POSITION": 45,
            "TEXCOORD_0": 47,
            "TEXCOORD_1": 48
          },
          "indices": 49,
          "material": 9,
          "mode": 4
        }
      ]
    },
    {
      "name": "WIND_TUNNEL_Material.003_0",
      "primitives": [
        {
          "attributes": {
            "NORMAL": 51,
            "POSITION": 50,
            "TEXCOORD_0": 52,
            "TEXCOORD_1": 53
          },
          "indices": 54,
          "material": 10,
          "mode": 4
        }
      ]
    },
    {
      "name": "WIND_TUNNEL_Material.008_0",
      "primitives": [
        {
          "attributes": {
            "NORMAL": 56,
            "POSITION": 55,
            "TEXCOORD_0": 57,
            "TEXCOORD_1": 58
          },
          "indices": 59,
          "material": 11,
          "mode": 4
        }
      ]
    },
    {
      "name": "WIND_TUNNEL_Fer_0",
      "primitives": [
        {
          "attributes": {
            "NORMAL": 61,
            "POSITION": 60,
            "TEXCOORD_0": 62,
            "TEXCOORD_1": 63
          },
          "indices": 64,
          "material": 12,
          "mode": 4
        }
      ]
    },
    {
      "name": "WIND_TUNNEL_Material.001_0",
      "primitives": [
        {
          "attributes": {
            "NORMAL": 66,
            "POSITION": 65,
            "TEXCOORD_0": 67,
            "TEXCOORD_1": 68
          },
          "indices": 69,
          "material": 13,
          "mode": 4
        }
      ]
    },
    {
      "name": "PROP_propeller_0",
      "primitives": [
        {
          "attributes": {
            "NORMAL": 71,
            "POSITION": 70,
            "TEXCOORD_0": 72
          },
          "indices": 73,
          "material": 14,
          "mode": 4
        }
      ]
    }
  ],
  "nodes": [
    {
      "children": [
        1
      ],
      "matrix": [
        1.0,
        0.0,
        0.0,
        0.0,
        0.0,
        2.220446049250313e-16,
        -1.0,
        0.0,
        0.0,
        1.0,
        2.220446049250313e-16,
        0.0,
        0.0,
        0.0,
        0.0,
        1.0
      ],
      "name": "Sketchfab_model"
    },
    {
      "children": [
        2
      ],
      "matrix": [
        0.009999999776482582,
        0.0,
        0.0,
        0.0,
        0.0,
        0.0,
        0.009999999776482582,
        0.0,
        0.0,
        -0.009999999776482582,
        0.0,
        0.0,
        0.0,
        0.0,
        0.0,
        1.0
      ],
      "name": "c9423b7f29e541e9a1550941bb314b56.fbx"
    },
    {
      "children": [
        3
      ],
      "name": "Object_2"
    },
    {
      "children": [
        4
      ],
      "name": "RootNode"
    },
    {
      "children": [
        5,
        7
      ],
      "name": "SOLAR_AR"
    },
    {
      "children": [
        6
      ],
      "name": "YELLOW_CAR",
      "rotation": [
        -0.0,
        -0.7071068286895752,
        0.0,
        0.7071068286895752
      ],
      "scale": [
        16.44753646850586,
        16.44753646850586,
        16.44753646850586
      ],
      "translation": [
        2.676135540008545,
        0.0,
        -239.26075744628906
      ]
    },
    {
      "mesh": 0,
      "name": "YELLOW_CAR_PARTS_both2:phong1_0"
    },
    {
      "children": [
        8,
        9,
        10,
        11,
        12,
        13,
        14,
        15,
        16,
        17,
        18,
        19,
        20,
        21
      ],
      "name": "WIND_TUNNEL",
      "scale": [
        0.2631016969680786,
        0.2631016969680786,
        0.2631016969680786
      ],
      "translation": [
        0.0,
        0.0006317172083072364,
        -651.6778564453125
      ]
    },
    {
      "mesh": 1,
      "name": "WIND_TUNNEL_Material.009_0"
    },
    {
      "mesh": 2,
      "name": "WIND_TUNNEL_Spot_0"
    },
    {
      "mesh": 3,
      "name": "WIND_TUNNEL_Blanck_0"
    },
    {
      "mesh": 4,
      "name": "WIND_TUNNEL_Material.006_0"
    },
    {
      "mesh": 5,
      "name": "WIND_TUNNEL_phong2_0"
    },
    {
      "mesh": 6,
      "name": "WIND_TUNNEL_Material.007_0"
    },
    {
      "mesh": 7,
      "name": "WIND_TUNNEL_lambert1_0"
    },
    {
      "mesh": 8,
      "name": "WIND_TUNNEL_Material.011_0"
    },
    {
      "mesh": 9,
      "name": "WIND_TUNNEL_Material.002_0"
    },
    {
      "mesh": 10,
      "name": "WIND_TUNNEL_Material.003_0"
    },
    {
      "mesh": 11,
      "name": "WIND_TUNNEL_Material.008_0"
    },
    {
      "mesh": 12,
      "name": "WIND_TUNNEL_Fer_0"
    },
    {
      "mesh": 13,
      "name": "WIND_TUNNEL_Material.001_0"
    },
    {
      "children": [
        22
      ],
      "name": "PROP",
      "rotation": [
        0.0,
        0.0,
        0.80901700258255,
        0.5877852439880371
      ],
      "translation": [
        0.0014648709911853075,
        1133.33056640625,
        -5151.58544921875
      ]
    },
    {
      "mesh": 14,
      "name": "PROP_propeller_0"
    }
  ],
  "samplers": [
    {
      "magFilter": 9729,
      "minFilter": 9987,
      "wrapS": 10497,
      "wrapT": 10497
    }
  ],
  "scene": 0,
  "scenes": [
    {
      "name": "Sketchfab_Scene",
      "nodes": [
        0
      ]
    }
  ],
  "textures": [
    {
      "sampler": 0,
      "source": 0
    },
    {
      "sampler": 0,
      "source": 1
    }
  ]
}
